<svg width="43" height="38" viewBox="0 0 43 38" fill="none" xmlns="http://www.w3.org/2000/svg">
<g clip-path="url(#clip0_21_2092)">
<path d="M42.999 19.001C42.9985 8.50828 33.3725 0.00160491 21.499 0.0010339C9.62555 0.000462899 0.000426929 8.50622 0.000953564 18.999C0.00140075 27.9087 6.94339 35.3855 16.3076 37.4394L16.307 24.8058L11.8739 24.8056L11.8736 18.9995L16.3067 18.9998L16.3066 16.498C16.3062 10.0315 19.6178 7.03436 26.8019 7.03471C28.1641 7.03477 30.5144 7.27123 31.4758 7.50687L31.4761 12.7696C30.9687 12.7224 30.0873 12.6988 28.9925 12.6988C25.4675 12.6986 24.1054 13.8788 24.1056 16.9467L24.1057 19.0001L31.1281 19.0005L29.9219 24.8065L24.106 24.8062L24.1066 37.86C34.752 36.7244 43.0004 28.7148 42.9999 19.001L42.999 19.001Z" fill="#0866FF"/>
<path d="M29.921 24.8067L31.1272 19.0007L24.1048 19.0003L24.1047 16.9469C24.1045 13.879 25.4666 12.6988 28.9916 12.699C30.0863 12.699 30.9678 12.7226 31.4752 12.7698L31.4749 7.50706C30.5135 7.27066 28.1632 7.03496 26.801 7.0349C19.6169 7.03455 16.3053 10.0317 16.3056 16.4982L16.3058 18.9999L11.8727 18.9997L11.873 24.8058L16.3061 24.806L16.3067 37.4396C17.9699 37.8044 19.7096 37.9991 21.5 37.9992C22.3815 37.9992 23.2509 37.9514 24.1049 37.8602L24.1042 24.8064L29.9201 24.8067L29.921 24.8067Z" fill="white"/>
</g>
<defs>
<clipPath id="clip0_21_2092">
<rect width="42.9981" height="37.9979" fill="white" transform="matrix(1 4.80906e-05 5.01903e-05 1 0 0)"/>
</clipPath>
</defs>
</svg>
