<svg width="41" height="39" viewBox="0 0 41 39" fill="none" xmlns="http://www.w3.org/2000/svg">
<g clip-path="url(#clip0_21_2090)">
<path d="M20.9816 3.43306C26.3254 3.43333 26.9582 3.4557 29.0597 3.54514C31.0129 3.62713 32.0676 3.93987 32.7707 4.20047C33.7004 4.54298 34.3723 4.95992 35.0677 5.62255C35.7708 6.29261 36.2005 6.92545 36.5599 7.8114C36.8334 8.48144 37.1616 9.49395 37.2476 11.3477C37.3415 13.3578 37.3649 13.9609 37.3652 19.0457C37.3654 24.1379 37.342 24.7409 37.2484 26.7436C37.1625 28.6048 36.8344 29.6098 36.561 30.2798C36.2017 31.1658 35.7642 31.806 35.0689 32.4685C34.3659 33.1385 33.7018 33.548 32.7721 33.8904C32.069 34.1509 31.0065 34.4635 29.0612 34.5453C26.9519 34.6346 26.3191 34.6569 20.9831 34.6566C15.6394 34.6563 15.0065 34.634 12.905 34.5445C10.9519 34.4625 9.89715 34.1498 9.19401 33.8892C8.26431 33.5467 7.59241 33.1297 6.89707 32.4671C6.19391 31.7971 5.76419 31.1642 5.40477 30.2783C5.1313 29.6082 4.80313 28.5957 4.7171 26.742C4.62326 24.7318 4.59979 24.1288 4.59955 19.044C4.5993 13.9518 4.62271 13.3487 4.71637 11.3461C4.80221 9.48488 5.13029 8.47985 5.4037 7.80983C5.76303 6.92392 6.2005 6.28368 6.89578 5.62113C7.59887 4.95113 8.26291 4.5417 9.19259 4.19929C9.8957 3.93875 10.9582 3.62612 12.9035 3.54433C15.0051 3.4551 15.6379 3.43279 20.9816 3.43306ZM20.9814 0.00100535C15.5518 0.000732412 14.8721 0.0230327 12.7393 0.112263C10.6143 0.201494 9.15335 0.528992 7.88774 0.997952C6.56745 1.48924 5.4503 2.13689 4.34097 3.20144C3.22384 4.25854 2.5442 5.32312 2.02864 6.57382C1.53651 7.7873 1.19282 9.17202 1.09917 11.197C1.00552 13.2369 0.982112 13.8846 0.98236 19.0587C0.982609 24.2329 1.00608 24.8806 1.09993 26.913C1.19377 28.938 1.53759 30.3302 2.02983 31.5363C2.54552 32.7945 3.22526 33.8591 4.3425 34.9163C5.45192 35.9736 6.56914 36.6288 7.88167 37.1127C9.15513 37.5818 10.6083 37.9095 12.7333 37.9989C14.8661 38.0884 15.5458 38.1107 20.9755 38.111C26.4052 38.1113 27.0848 38.089 29.2176 37.9997C31.3426 37.9105 32.8036 37.583 34.0692 37.114C35.3816 36.6302 36.4988 35.9751 37.6081 34.918C38.7174 33.8609 39.4049 32.7963 39.9127 31.5456C40.4048 30.3321 40.7485 28.9474 40.8421 26.9224C40.9358 24.89 40.9592 24.2423 40.9589 19.0682C40.9587 13.894 40.9352 13.2463 40.8414 11.2139C40.7475 9.1889 40.4037 7.7967 39.9115 6.59062C39.4192 5.32497 38.7395 4.26033 37.6222 3.20311C36.5128 2.14589 35.3956 1.49069 34.0831 1.00671C32.8096 0.537626 31.3565 0.209982 29.2315 0.120537C27.0908 0.0236469 26.4111 0.00127828 20.9814 0.00100535Z" fill="#000100"/>
<path d="M20.9819 9.26956C15.3101 9.26927 10.7087 13.654 10.709 19.059C10.7092 24.4639 15.311 28.8491 20.9829 28.8494C26.6547 28.8497 31.2561 24.4649 31.2558 19.06C31.2556 13.6551 26.6538 9.26984 20.9819 9.26956ZM20.9827 25.4099C17.303 25.4097 14.3185 22.5657 14.3183 19.0592C14.3182 15.5526 17.3024 12.7089 20.9821 12.7091C24.6618 12.7092 27.6463 15.5533 27.6465 19.0598C27.6466 22.5663 24.6624 25.4101 20.9827 25.4099Z" fill="#000100"/>
<path d="M34.0602 8.88346C34.0602 10.1491 32.9822 11.169 31.6618 11.1689C30.3337 11.1688 29.2634 10.1414 29.2633 8.88322C29.2632 7.6176 30.3413 6.59771 31.6616 6.59778C32.9819 6.59784 34.0601 7.62528 34.0602 8.88346Z" fill="#000100"/>
</g>
<defs>
<clipPath id="clip0_21_2090">
<rect width="40" height="38.1174" fill="white" transform="matrix(1 5.02674e-05 4.80169e-05 1 0.981445 0)"/>
</clipPath>
</defs>
</svg>
