<svg width="43" height="38" viewBox="0 0 43 38" fill="none" xmlns="http://www.w3.org/2000/svg">
<g clip-path="url(#clip0_21_2093)">
<path d="M21.5 38C33.3741 38 43 29.4934 43 19C43 8.50659 33.3741 0 21.5 0C9.62588 0 0 8.50659 0 19C0 29.4934 9.62588 38 21.5 38Z" fill="white"/>
<path d="M21.5 0C9.62634 0 0 8.507 0 19C0 27.0535 5.66255 33.9342 13.6609 36.7021C13.4663 35.2008 13.307 32.8864 13.7317 31.2444C14.121 29.7588 16.2444 21.7992 16.2444 21.7992C16.2444 21.7992 15.6074 20.6576 15.6074 18.9844C15.6074 16.3416 17.3416 14.3712 19.5004 14.3712C21.3407 14.3712 22.2255 15.5909 22.2255 17.0453C22.2255 18.6716 21.0576 21.1111 20.4383 23.3786C19.9251 25.2708 21.5177 26.8189 23.6235 26.8189C27.4457 26.8189 30.3831 23.2535 30.3831 18.1243C30.3831 13.5737 26.6848 10.3992 21.3938 10.3992C15.2712 10.3992 11.679 14.4494 11.679 18.6403C11.679 20.2667 12.3868 22.0181 13.2716 22.972C13.4486 23.1597 13.4663 23.3317 13.4132 23.5193C13.2539 24.1136 12.8823 25.4115 12.8115 25.6774C12.723 26.0214 12.493 26.0996 12.086 25.9276C9.3963 24.8173 7.71523 21.3613 7.71523 18.5621C7.71523 12.5728 12.6346 7.06831 21.9247 7.06831C29.3745 7.06831 35.1786 11.7597 35.1786 18.0461C35.1786 24.5984 30.507 29.8683 24.0305 29.8683C21.8539 29.8683 19.8012 28.8675 19.1111 27.679C19.1111 27.679 18.0317 31.307 17.7663 32.1984C17.2885 33.856 15.979 35.9202 15.0942 37.1868C17.1115 37.7342 19.235 38.0313 21.4646 38.0313C33.3383 38.0313 42.9646 29.5243 42.9646 19.0313C43 8.50699 33.3737 0 21.5 0Z" fill="#E60019"/>
</g>
<defs>
<clipPath id="clip0_21_2093">
<rect width="43" height="38" fill="white"/>
</clipPath>
</defs>
</svg>
