<svg width="41" height="39" viewBox="0 0 41 39" fill="none" xmlns="http://www.w3.org/2000/svg">
<g clip-path="url(#clip0_21_2091)">
<path d="M20.6664 38.1176C31.7121 38.1181 40.666 29.5859 40.6655 19.0603C40.665 8.5347 31.7102 0.00156059 20.6646 0.00100535C9.61886 0.00045011 0.66496 8.53268 0.665466 19.0583C0.665971 29.5839 9.62069 38.117 20.6664 38.1176Z" fill="url(#paint0_linear_21_2091)"/>
<path fill-rule="evenodd" clip-rule="evenodd" d="M9.71859 18.8577C15.5489 16.4374 19.4367 14.8418 21.3819 14.0709C26.936 11.8697 28.0901 11.4874 28.8424 11.4748C29.0078 11.472 29.3777 11.5111 29.6174 11.6964C29.8197 11.8529 29.8754 12.0642 29.902 12.2126C29.9287 12.3609 29.9619 12.6988 29.9355 12.9628C29.6347 15.9764 28.3327 23.2894 27.6703 26.6646C27.39 28.0928 26.838 28.5716 26.3035 28.6185C25.1421 28.7203 24.2601 27.887 23.1352 27.1842C21.3749 26.0846 20.3804 25.4001 18.6717 24.327C16.697 23.087 17.9771 22.4055 19.1023 21.2918C19.3968 21.0003 24.5139 16.5652 24.613 16.1628C24.6254 16.1125 24.6368 15.9249 24.5199 15.8258C24.403 15.7268 24.2304 15.7607 24.1058 15.7876C23.9293 15.8258 21.1173 17.5968 15.6699 21.1006C14.8718 21.6228 14.1488 21.8773 13.5011 21.8639C12.787 21.8492 11.4133 21.479 10.3921 21.1627C9.13959 20.7746 8.14411 20.5695 8.23076 19.9106C8.2759 19.5674 8.77184 19.2164 9.71859 18.8577Z" fill="white"/>
</g>
<defs>
<linearGradient id="paint0_linear_21_2091" x1="20.6646" y1="0.00100535" x2="20.6626" y2="37.8349" gradientUnits="userSpaceOnUse">
<stop stop-color="#2AABEE"/>
<stop offset="1" stop-color="#229ED9"/>
</linearGradient>
<clipPath id="clip0_21_2091">
<rect width="40" height="38.1166" fill="white" transform="matrix(1 5.02674e-05 4.80169e-05 1 0.664551 0)"/>
</clipPath>
</defs>
</svg>
